<svg width="224" height="68" viewBox="0 0 224 68" fill="none" xmlns="http://www.w3.org/2000/svg">
    <path fill-rule="evenodd" clip-rule="evenodd" d="M0.627268 1.41031C0.0648114 2.05846 0 3.83217 0 18.602C0 34.544 0.0242569 35.0961 0.758028 35.8613C1.44329 36.5758 2.02128 36.6517 6.77071 36.6517C9.66031 36.6517 12.9437 36.4727 14.0667 36.2537C18.3102 35.4265 20.809 32.3403 21.1399 27.5184C21.3764 24.0713 20.7537 21.7301 19.047 19.6513L17.717 18.0309L18.7862 15.9829C19.7 14.2321 19.8573 13.4753 19.8713 10.7693C19.8903 7.02864 18.9086 4.45858 16.8282 2.80422C14.6068 1.03763 13.1328 0.723438 6.97575 0.704863C1.90151 0.68945 1.18366 0.769282 0.627268 1.41031ZM24.9202 1.09257C24.305 1.4862 24.2569 2.7564 24.2569 18.6103C24.2569 31.3776 24.3721 35.8233 24.7117 36.1774C25.2981 36.7888 27.0059 36.7888 27.5922 36.1774C27.9136 35.8423 28.047 33.5212 28.047 28.255V20.8073L30.5974 20.9239L33.1482 21.0408L37.1354 28.6578C41.4008 36.8058 41.9072 37.3722 43.7788 36.0933C44.2984 35.7383 44.7237 35.1934 44.7237 34.8823C44.7237 34.5709 43.1003 31.2527 41.1166 27.5085C37.5402 20.7587 37.3435 20.0789 38.9619 20.0587C39.9018 20.0473 43.0276 16.3386 43.5025 14.6716C44.0695 12.6798 44.0994 8.91221 43.5639 6.90138C43.0598 5.00911 41.2621 2.86193 39.264 1.76521C37.8972 1.0151 36.9872 0.898516 31.6477 0.790624C27.7817 0.712372 25.3432 0.821846 24.9202 1.09257ZM47.5879 1.56603C47.077 2.32602 46.9977 4.62378 46.9977 18.6696C46.9977 32.7154 47.077 35.0131 47.5879 35.7731C48.1636 36.6307 48.3577 36.6517 55.6609 36.6517C60.9754 36.6517 63.2756 36.5142 63.5986 36.1774C64.3392 35.4052 64.1606 33.1825 63.3204 32.7134C62.908 32.4834 60.0885 32.3044 56.8771 32.3044H51.1669V26.5738V20.8432H55.3361C59 20.8432 59.5969 20.7476 60.2632 20.0528C61.1755 19.1015 61.2112 18.5352 60.4311 17.3745C59.8801 16.5536 59.5564 16.4959 55.504 16.4959H51.1669V10.7654V5.0348H56.8771C60.0885 5.0348 62.908 4.85577 63.3204 4.62575C64.1606 4.15664 64.3392 1.93397 63.5986 1.16173C63.2756 0.825007 60.9754 0.687474 55.6609 0.687474C48.3577 0.687474 48.1636 0.70842 47.5879 1.56603ZM67.5403 1.16173C67.2007 1.51584 67.0855 5.96275 67.0855 18.7348C67.0855 35.2352 67.1113 35.8478 67.8185 36.2426C68.2502 36.4833 71.5131 36.6517 75.7509 36.6517C83.5461 36.6517 84.1411 36.4972 84.1411 34.4721C84.1411 32.6391 82.9866 32.3044 76.6658 32.3044H70.8756V26.607V20.9092L75.4382 20.7776C80.3699 20.635 80.713 20.4796 80.7243 18.387C80.7327 16.8129 79.7855 16.4959 75.0698 16.4959H70.8756V10.7654V5.0348H76.6658C82.9866 5.0348 84.1411 4.70005 84.1411 2.86706C84.1411 0.830935 83.57 0.687474 75.4727 0.687474C70.162 0.687474 67.8632 0.825007 67.5403 1.16173ZM96.5664 1.37909C96.0422 2.00511 86.0279 33.8868 86.0339 34.9108C86.0377 35.5933 87.3465 36.6517 88.1867 36.6517C89.3795 36.6517 90.0526 35.5467 91.143 31.8005L92.152 28.3325L98.0479 28.4412L103.944 28.5499L105.129 32.2771C106.424 36.3513 107.006 37.0354 108.662 36.4316C110.599 35.7253 110.992 37.32 100.762 4.33725C100.34 2.97535 99.741 1.59725 99.4313 1.27436C98.6718 0.482359 97.274 0.533341 96.5664 1.37909ZM113.022 1.16173C112.368 1.84386 112.368 35.4953 113.022 36.1774C113.608 36.7888 115.316 36.7888 115.903 36.1774C116.236 35.8293 116.357 32.4711 116.357 23.5307C116.357 16.8358 116.485 11.3617 116.642 11.3665C116.798 11.3712 118.282 13.7773 119.939 16.7141C122.937 22.0273 123.752 22.8865 125.231 22.2945C125.526 22.1763 127.007 19.8896 128.522 17.2128C130.036 14.5361 131.5 12.0858 131.776 11.7676C132.191 11.2866 132.276 13.2402 132.276 23.2991C132.276 36.4371 132.31 36.6517 134.366 36.6517C136.404 36.6517 136.445 36.2932 136.445 18.6696C136.445 0.998504 136.409 0.687474 134.335 0.687474C133.212 0.687474 132.663 1.47276 128.051 9.67853C126.188 12.9932 124.519 15.7055 124.342 15.7055C124.165 15.7055 122.28 12.5897 120.154 8.7814C118.027 4.97275 116.035 1.59369 115.727 1.27239C115.05 0.566539 113.648 0.509234 113.022 1.16173ZM141.444 1.22219C137.444 3.53655 139.008 10.1073 143.571 10.1587C147.994 10.2081 150.007 4.65658 146.638 1.70079C145.34 0.561797 142.964 0.34285 141.444 1.22219ZM156.238 1.30282C155.396 1.91777 155.396 1.91935 155.4 15.234C155.403 28.3843 155.414 28.5748 156.296 30.548C157.852 34.0338 161.774 36.6517 165.44 36.6517C169.031 36.6517 173.057 34.0389 174.852 30.5437C175.64 29.0095 175.678 28.41 175.786 15.6506L175.9 2.35606L174.882 1.52176C173.626 0.491449 173.401 0.487497 172.451 1.4779C171.725 2.23552 171.693 2.79513 171.693 14.9348C171.693 28.9293 171.715 28.7909 169.236 31.0602C168.045 32.1506 167.605 32.3044 165.672 32.3044C162.919 32.3044 161.246 31.2515 160.039 28.7593C159.208 27.0441 159.186 26.6785 159.186 14.4586C159.186 1.94741 159.184 1.91658 158.343 1.30282C157.88 0.964517 157.406 0.687474 157.291 0.687474C157.175 0.687474 156.701 0.964517 156.238 1.30282ZM185.715 1.0566C179.713 2.96033 177.04 10.0358 180.639 14.4954C181.17 15.1538 184.278 17.5768 187.546 19.8805C194.111 24.5088 195.188 25.5727 195.19 27.4326C195.193 28.9668 193.646 31.0073 191.906 31.7653C190.127 32.5403 186.175 32.4312 183.4 31.5305C180.434 30.5678 179.152 30.9848 178.967 32.9727C178.823 34.5203 179.253 34.7934 183.512 35.8581C189.628 37.3868 193.392 36.6639 196.575 33.3485C199.479 30.3228 199.989 27.2836 198.21 23.6097C197.299 21.7285 196.631 21.1547 190.013 16.5635C183.955 12.3612 183.064 11.4767 183.064 9.66983C183.064 5.3972 188.221 3.59465 193.609 5.9833C196.255 7.1555 197.286 7.06618 197.922 5.60943C198.243 4.87474 198.198 4.45858 197.712 3.68594C196.457 1.68854 188.926 0.038142 185.715 1.0566ZM210.821 1.5767C210.609 1.8486 208.166 9.41887 205.391 18.3997C200.061 35.6467 200.042 35.7482 202.051 36.2841C203.619 36.7031 204.178 36.011 205.424 32.1111L206.625 28.3523H212.409H218.193L219.245 31.9273C219.823 33.8935 220.55 35.7668 220.86 36.0905C221.83 37.1018 223.995 36.0249 224 34.5286C224.004 33.2288 214.491 2.55643 213.842 1.7743C213.176 0.973211 211.38 0.855438 210.821 1.5767ZM146.583 2.85876C147.647 4.14834 147.726 6.55083 146.746 7.81234L146.056 8.70117L145.554 7.43886C145.178 6.49115 145.161 6.06393 145.487 5.72404C146.055 5.13123 146.043 3.34448 145.466 2.74257C145.215 2.48173 144.363 2.26832 143.571 2.26832H142.13V5.43001C142.13 7.27446 142.288 8.5917 142.509 8.5917C142.718 8.5917 142.888 8.05816 142.888 7.40606C142.888 5.85921 143.667 5.8758 144.554 7.44163C145.423 8.97545 144.955 9.57775 143.167 9.22799C141.681 8.93751 140.404 7.68192 140.041 6.15522C139.727 4.8368 140.721 2.53548 141.866 1.93041C143.226 1.21113 145.611 1.68064 146.583 2.85876ZM13.6445 5.54027C15.2026 6.35203 15.98 8.41029 15.8235 11.31C15.698 13.6295 15.576 13.9365 14.2922 15.1633L12.8975 16.4959H8.5335H4.16916V10.7654V5.0348L8.43306 5.04072C11.0733 5.04428 13.0578 5.23438 13.6445 5.54027ZM37.486 5.53474C39.2408 6.47495 39.986 8.03405 39.986 10.7654C39.986 12.6964 39.8025 13.5338 39.1916 14.3922C37.9128 16.188 36.9425 16.4837 32.311 16.49L28.047 16.4959V10.7654V5.0348L32.311 5.04072C34.9398 5.04428 36.9243 5.23359 37.486 5.53474ZM100.231 17.0887C101.232 20.3492 102.133 23.2394 102.233 23.5109C102.372 23.8879 101.417 24.0049 98.2052 24.0049C95.4179 24.0049 93.9955 23.8591 93.9955 23.5738C93.9955 22.5367 97.9012 10.5349 98.1419 10.8314C98.2894 11.0124 99.2293 13.8282 100.231 17.0887ZM214.531 17.116C215.568 20.3453 216.417 23.2161 216.417 23.4963C216.417 23.88 215.395 24.0049 212.248 24.0049C209.955 24.0049 208.079 23.9539 208.079 23.8915C208.079 23.7718 211.727 12.3466 212.067 11.4005C212.177 11.0977 212.351 10.9389 212.455 11.0471C212.559 11.1558 213.493 13.8867 214.531 17.116ZM15.4865 21.8451C17.9725 24.0267 17.797 29.5738 15.1841 31.41C14.0262 32.2237 13.4724 32.3044 9.04024 32.3044H4.16916V26.5738V20.8432H9.25666C14.1494 20.8432 14.3881 20.8816 15.4865 21.8451ZM7.46999 45.1977C7.32217 45.3519 7.20127 46.4956 7.20127 47.7389V49.9995L4.56674 50.1549C2.43327 50.2805 1.74801 50.4904 0.966107 51.2563C0.0473768 52.1562 0 52.4103 0 56.4277C0 60.1213 0.10006 60.7856 0.795551 61.7077C1.57594 62.7423 1.66463 62.7601 5.43847 62.6502L9.28585 62.538V53.8434C9.28585 45.3914 9.26424 45.1456 8.51228 45.0333C8.08665 44.9697 7.6178 45.044 7.46999 45.1977ZM21.4549 45.5763C21.1547 46.3913 21.1547 61.2955 21.4549 62.1104C21.5814 62.4542 22.0931 62.7356 22.5919 62.7356H23.4989V53.8434V44.9511H22.5919C22.0931 44.9511 21.5814 45.2325 21.4549 45.5763ZM77.3189 47.52V50.0889H75.2908C70.7426 50.0889 69.7386 51.295 69.7386 56.7576C69.7386 59.996 69.8239 60.4094 70.7199 61.5196C71.6871 62.7182 71.7519 62.7356 75.2548 62.7356C78.3801 62.7356 78.8554 62.6435 79.2007 61.9713C79.6195 61.1552 79.7628 46.6632 79.3629 45.5763C79.2363 45.2325 78.7246 44.9511 78.2259 44.9511C77.3621 44.9511 77.3189 45.074 77.3189 47.52ZM87.7823 45.5763C87.4821 46.3913 87.4821 61.2955 87.7823 62.1104C87.9703 62.6218 88.6897 62.7356 91.7282 62.7356C95.4123 62.7356 95.4524 62.7253 96.4254 61.5196C97.3289 60.3999 97.4066 60.0091 97.4066 56.5857C97.4066 53.0466 97.3539 52.8063 96.3139 51.5926C95.3126 50.424 94.9965 50.3043 92.5238 50.1584L89.8263 49.9995V47.4753C89.8263 45.0764 89.7812 44.9511 88.9194 44.9511C88.4206 44.9511 87.9089 45.2325 87.7823 45.5763ZM113.792 53.7446L113.894 62.538L117.511 62.6502C120.987 62.7577 121.165 62.7218 122.059 61.729C122.924 60.7694 122.99 60.4047 122.99 56.6098C122.99 52.8293 122.921 52.4475 122.071 51.5041C121.245 50.5876 120.871 50.4841 118.376 50.4841H115.599V47.7176C115.599 45.0246 115.574 44.9511 114.645 44.9511H113.69L113.792 53.7446ZM12.6879 50.6188C11.0763 51.3816 10.6124 52.7621 10.6124 56.7956C10.6124 59.9932 10.6992 60.4114 11.5937 61.5196C12.5666 62.7253 12.6068 62.7356 16.2908 62.7356C18.9177 62.7356 20.0578 62.591 20.181 62.2416C20.6009 61.0508 20.0131 60.7596 17.1887 60.7596C13.7578 60.7596 12.8865 60.3564 12.8865 58.7697V57.5979H16.2514C20.3345 57.5979 20.676 57.326 20.3379 54.3484C20.007 51.4365 18.9083 50.3801 16.03 50.2078C14.7129 50.1292 13.3754 50.2936 12.6879 50.6188ZM26.1774 50.8295C25.7514 51.6598 25.6066 61.033 26.003 62.1104C26.1296 62.4542 26.6455 62.7356 27.1495 62.7356H28.0664L27.9618 56.5162C27.8704 51.0544 27.7798 50.2809 27.2197 50.1687C26.8691 50.0987 26.4002 50.3959 26.1774 50.8295ZM30.4159 50.3778C29.6154 50.6686 29.8792 52.0614 31.747 57.4003C33.3767 62.0594 33.6299 62.538 34.463 62.538C35.2964 62.538 35.5508 62.0574 37.1855 57.4003C39.1306 51.8598 39.3451 50.6912 38.4809 50.3454C37.577 49.9837 37.0141 50.9247 35.8377 54.7638C35.2267 56.7573 34.6013 58.3883 34.4486 58.3883C34.2955 58.3883 33.6458 56.6292 33.0053 54.4793C31.8834 50.7137 31.4369 50.0063 30.4159 50.3778ZM41.8269 50.4596C40.1751 51.1974 39.7965 52.3641 39.7965 56.7158C39.7965 60.5367 39.8564 60.858 40.7406 61.78C41.6358 62.7135 41.8761 62.7585 45.3835 62.651C48.7935 62.5467 49.0823 62.4764 49.0823 61.7476C49.0823 61.033 48.7924 60.9461 46.068 60.8402C42.702 60.7098 42.0706 60.3794 42.0706 58.7499V57.6275L45.5764 57.5141L49.0823 57.4003L49.1941 54.9729C49.2904 52.8814 49.1794 52.3922 48.3925 51.4381C47.5962 50.4726 47.1687 50.3157 45.0591 50.2137C43.728 50.1493 42.2737 50.26 41.8269 50.4596ZM53.209 50.4762C52.769 50.6615 52.039 51.3033 51.5872 51.9025C50.8315 52.9039 50.7742 53.375 50.8717 57.7646L50.9774 62.538H51.9249H52.8725L52.9805 58.0172C53.0396 55.5305 53.2674 53.2711 53.4861 52.996C53.7059 52.7202 54.9298 52.4439 56.2173 52.3795C58.1491 52.2827 58.5736 52.1349 58.6858 51.5195C58.7605 51.1109 58.5918 50.6244 58.3106 50.4386C57.6594 50.0082 54.26 50.0335 53.209 50.4762ZM61.1566 50.4809C59.5196 51.1698 59.1262 52.3633 59.1262 56.6446C59.1262 60.1177 59.2323 60.7939 59.9217 61.7077C60.7021 62.7423 60.7908 62.7601 64.5647 62.6502C68.1236 62.5463 68.412 62.4787 68.412 61.7476C68.412 61.0421 68.1274 60.9465 65.7589 60.8568C61.691 60.7026 61.4003 60.5778 61.4003 58.9882V57.6275L64.9062 57.5141L68.412 57.4003L68.5299 55.4653C68.6868 52.8834 68.0137 51.3081 66.4639 50.6331C65.0794 50.03 62.41 49.9533 61.1566 50.4809ZM98.6384 50.3778C97.8743 50.6556 98.0669 51.7128 99.8626 57.0944L101.56 62.1831L100.79 64.2951C99.9403 66.6292 100.038 67.4781 101.158 67.4781C101.976 67.4781 101.991 67.4426 105.359 57.3058C106.963 52.4803 107.27 51.169 106.904 50.7093C106.055 49.6419 105.396 50.5457 104.161 54.4733C103.484 56.6264 102.833 58.3883 102.713 58.3883C102.593 58.3883 101.941 56.6264 101.264 54.4733C100.074 50.6856 99.6421 50.0126 98.6384 50.3778ZM125.52 51.3986C124.759 52.2428 124.696 52.7174 124.696 57.552C124.696 62.7585 124.701 62.7898 125.548 62.6645C126.364 62.5435 126.409 62.3392 126.591 57.9125C126.695 55.3681 126.951 53.1103 127.159 52.8949C127.368 52.6799 128.562 52.4495 129.812 52.3831C131.84 52.2756 132.1 52.1665 132.208 51.3733C132.324 50.5157 132.223 50.4841 129.336 50.4841C126.698 50.4841 126.246 50.5924 125.52 51.3986ZM133.585 51.4543C132.714 52.3621 132.655 52.6929 132.655 56.6098C132.655 60.5434 132.712 60.8548 133.599 61.78C134.494 62.7135 134.735 62.7585 138.242 62.651C141.652 62.5467 141.941 62.4764 141.941 61.7476C141.941 61.033 141.651 60.9461 138.919 60.8402C135.622 60.7125 134.55 60.1478 134.55 58.5389C134.55 57.656 134.669 57.6228 138.245 57.5133L141.941 57.4003L142.061 55.6534C142.213 53.4268 141.923 52.2436 140.984 51.2646C140.371 50.6252 139.717 50.4841 137.376 50.4841C134.844 50.4841 134.409 50.5955 133.585 51.4543ZM7.20127 56.6098V60.7596H5.33728C2.2684 60.7596 2.27408 60.7675 2.27408 56.6004C2.27408 54.0267 2.41659 52.8613 2.74785 52.7218C3.00861 52.6123 4.11685 52.5083 5.21144 52.4913L7.20127 52.4601V56.6098ZM17.2141 52.7C17.5696 52.8423 17.8137 53.4051 17.8137 54.0833V55.2266H15.3501C13.032 55.2266 12.8865 55.1729 12.8865 54.3176C12.8865 53.8177 13.0911 53.1952 13.3413 52.9344C13.8196 52.4356 16.1941 52.2918 17.2141 52.7ZM46.3981 52.7C46.7537 52.8423 46.9977 53.4051 46.9977 54.0833V55.2266H44.5342H42.0706V54.0738C42.0706 53.4398 42.284 52.8316 42.5443 52.7218C43.23 52.4333 45.697 52.4194 46.3981 52.7ZM65.8727 52.9344C66.1228 53.1952 66.3275 53.8177 66.3275 54.3176C66.3275 55.1729 66.1819 55.2266 63.8639 55.2266H61.4003V54.0738C61.4003 53.4398 61.6137 52.8316 61.8741 52.7218C62.806 52.3297 65.4262 52.4688 65.8727 52.9344ZM77.3189 56.6098V60.7596H75.3988C72.2499 60.7596 72.0127 60.4734 72.0127 56.675C72.0127 54.6614 72.187 53.2268 72.4675 52.9344C72.7176 52.6735 73.9115 52.4601 75.1206 52.4601H77.3189V56.6098ZM94.6777 52.9344C94.9582 53.2268 95.1325 54.6614 95.1325 56.675C95.1325 60.4734 94.8953 60.7596 91.7464 60.7596H89.8263V56.6098V52.4601H92.0246C93.2337 52.4601 94.4276 52.6735 94.6777 52.9344ZM120.451 52.9344C120.73 53.2253 120.906 54.6468 120.906 56.6098C120.906 58.5729 120.73 59.9944 120.451 60.2853C120.201 60.5461 119.007 60.7596 117.798 60.7596H115.599V56.6098V52.4601H117.798C119.007 52.4601 120.201 52.6735 120.451 52.9344ZM139.257 52.7C139.612 52.8423 139.856 53.4051 139.856 54.0833V55.2266H137.203C134.835 55.2266 134.55 55.1448 134.55 54.4642C134.55 54.0453 134.818 53.4229 135.145 53.081C135.741 52.4601 138.109 52.2408 139.257 52.7Z" fill="#FEC901"/>
    </svg>