<svg width="24" height="25" viewBox="0 0 24 25" fill="none" xmlns="http://www.w3.org/2000/svg">
<path fill-rule="evenodd" clip-rule="evenodd" d="M15.7935 1.38672C16.2075 1.38672 16.5435 1.72272 16.5435 2.13672L16.544 2.98453C18.0041 3.08463 19.2167 3.58477 20.075 4.44482C21.012 5.38582 21.505 6.73882 21.5 8.36182V17.4848C21.5 20.8168 19.384 22.8868 15.979 22.8868H7.521C4.116 22.8868 2 20.7878 2 17.4088V8.35982C2 5.21701 3.88706 3.19966 6.96469 2.98487L6.9653 2.13672C6.9653 1.72272 7.3013 1.38672 7.7153 1.38672C8.1293 1.38672 8.4653 1.72272 8.4653 2.13672L8.465 2.96572H15.043L15.0435 2.13672C15.0435 1.72272 15.3795 1.38672 15.7935 1.38672ZM20 10.2907H3.5V17.4088C3.5 19.9748 4.928 21.3868 7.521 21.3868H15.979C18.572 21.3868 20 20.0008 20 17.4848L20 10.2907ZM16.2012 16.583C16.6152 16.583 16.9512 16.919 16.9512 17.333C16.9512 17.747 16.6152 18.083 16.2012 18.083C15.7872 18.083 15.4472 17.747 15.4472 17.333C15.4472 16.919 15.7782 16.583 16.1922 16.583H16.2012ZM11.7637 16.583C12.1777 16.583 12.5137 16.919 12.5137 17.333C12.5137 17.747 12.1777 18.083 11.7637 18.083C11.3497 18.083 11.0097 17.747 11.0097 17.333C11.0097 16.919 11.3407 16.583 11.7547 16.583H11.7637ZM7.3169 16.583C7.7309 16.583 8.0669 16.919 8.0669 17.333C8.0669 17.747 7.7309 18.083 7.3169 18.083C6.9029 18.083 6.5619 17.747 6.5619 17.333C6.5619 16.919 6.8939 16.583 7.3079 16.583H7.3169ZM16.2012 12.6963C16.6152 12.6963 16.9512 13.0323 16.9512 13.4463C16.9512 13.8603 16.6152 14.1963 16.2012 14.1963C15.7872 14.1963 15.4472 13.8603 15.4472 13.4463C15.4472 13.0323 15.7782 12.6963 16.1922 12.6963H16.2012ZM11.7637 12.6963C12.1777 12.6963 12.5137 13.0323 12.5137 13.4463C12.5137 13.8603 12.1777 14.1963 11.7637 14.1963C11.3497 14.1963 11.0097 13.8603 11.0097 13.4463C11.0097 13.0323 11.3407 12.6963 11.7547 12.6963H11.7637ZM7.3169 12.6963C7.7309 12.6963 8.0669 13.0323 8.0669 13.4463C8.0669 13.8603 7.7309 14.1963 7.3169 14.1963C6.9029 14.1963 6.5619 13.8603 6.5619 13.4463C6.5619 13.0323 6.8939 12.6963 7.3079 12.6963H7.3169ZM15.043 4.46572H8.465L8.4653 5.42772C8.4653 5.84172 8.1293 6.17772 7.7153 6.17772C7.3013 6.17772 6.9653 5.84172 6.9653 5.42772L6.96477 4.48842C4.72454 4.67661 3.5 6.03457 3.5 8.35982V8.79072H20L20 8.35982C20.004 7.12482 19.672 6.16482 19.013 5.50482C18.4345 4.92463 17.5889 4.57812 16.5444 4.4889L16.5435 5.42772C16.5435 5.84172 16.2075 6.17772 15.7935 6.17772C15.3795 6.17772 15.0435 5.84172 15.0435 5.42772L15.043 4.46572Z" fill="#C4C4C4"/>
</svg>
