<svg width="29" height="31" viewBox="0 0 29 31" fill="none" xmlns="http://www.w3.org/2000/svg">
<g opacity="0.5" clip-path="url(#clip0)">
<path d="M14.7854 30.3554C14.6894 30.3554 14.5934 30.3554 14.4967 30.3549C12.2235 30.3607 10.1232 30.3009 8.08058 30.1723C6.2079 30.0544 4.4985 29.3849 3.13692 28.2364C1.82312 27.1282 0.925941 25.6297 0.470383 23.783C0.0738984 22.1754 0.0528793 20.5972 0.0327454 19.0708C0.0181427 17.9756 0.00309753 16.6779 0 15.3581C0.00309753 14.0329 0.0181427 12.7351 0.0327454 11.6399C0.0528793 10.1138 0.0738984 8.53562 0.470383 6.92773C0.925941 5.08111 1.82312 3.58262 3.13692 2.47437C4.4985 1.32584 6.2079 0.656364 8.0808 0.53849C10.1234 0.410087 12.2242 0.35012 14.5022 0.355842C16.776 0.350807 18.8757 0.410087 20.9183 0.53849C22.791 0.656364 24.5004 1.32584 25.862 2.47437C27.176 3.58262 28.073 5.08111 28.5285 6.92773C28.925 8.53539 28.946 10.1138 28.9661 11.6399C28.9808 12.7351 28.996 14.0329 28.9989 15.3526V15.3581C28.996 16.6779 28.9808 17.9756 28.9661 19.0708C28.946 20.597 28.9252 22.1751 28.5285 23.783C28.073 25.6297 27.176 27.1282 25.862 28.2364C24.5004 29.3849 22.791 30.0544 20.9183 30.1723C18.9622 30.2954 16.9528 30.3554 14.7854 30.3554ZM14.4967 28.0112C16.7329 28.0167 18.7861 27.9583 20.7807 27.8329C22.1967 27.7438 23.4244 27.2685 24.4303 26.42C25.36 25.6356 26.0003 24.5535 26.3332 23.2035C26.6634 21.8652 26.6824 20.4283 26.7007 19.0388C26.7151 17.9509 26.7302 16.6623 26.7333 15.3554C26.7302 14.0482 26.7151 12.7599 26.7007 11.672C26.6824 10.2824 26.6634 8.84553 26.3332 7.50703C26.0003 6.15708 25.36 5.07493 24.4303 4.29055C23.4244 3.44231 22.1967 2.96693 20.7807 2.87789C18.7861 2.75224 16.7329 2.69433 14.502 2.69936C12.2662 2.69387 10.2128 2.75224 8.2182 2.87789C6.80219 2.96693 5.57446 3.44231 4.56864 4.29055C3.63894 5.07493 2.99863 6.15708 2.66565 7.50703C2.33554 8.84553 2.31651 10.2822 2.29815 11.672C2.28377 12.7608 2.26872 14.0501 2.26562 15.3581C2.26872 16.6605 2.28377 17.95 2.29815 19.0388C2.31651 20.4283 2.33554 21.8652 2.66565 23.2035C2.99863 24.5535 3.63894 25.6356 4.56864 26.42C5.57446 27.2682 6.80219 27.7436 8.2182 27.8327C10.2128 27.9583 12.2667 28.0169 14.4967 28.0112Z" fill="#33302F"/>
<g clip-path="url(#clip1)">
<path d="M10.5712 10.8151L10.5712 10.8151L10.5708 10.8197C10.5314 11.2882 10.5082 11.6321 10.5082 11.8135V14.2485H8.74219H7.99219V14.9985V18.9135V19.6635H8.74219H10.5082V30.4565V31.2065H11.2582H16.4162H17.1662V30.4565V19.6645H19.8782H20.5109L20.6175 19.0407C20.6805 18.6721 20.7444 18.272 20.8073 17.8407L20.8085 17.8325L20.8096 17.8242L20.9646 16.5662L20.9646 16.5662L20.9658 16.5559C21.0187 16.071 21.0644 15.5707 21.1057 15.0589L21.1713 14.2485H20.3582H17.1942V12.4878C17.1978 12.4833 17.202 12.4783 17.2068 12.4728C17.2262 12.4506 17.2535 12.4227 17.2908 12.3895C17.4044 12.29 17.4905 12.2685 17.5622 12.2685H20.3592H21.1092V11.5185V7.35547V6.60547H20.3592H16.5392C15.1258 6.60547 13.9346 6.81894 13.0516 7.32612L13.0514 7.32623C12.2572 7.78277 11.6296 8.33043 11.2253 8.9897C10.8571 9.58715 10.627 10.1965 10.5712 10.8151Z" stroke="#33302F" stroke-width="1.5"/>
</g>
</g>
<defs>
<clipPath id="clip0">
<rect width="29" height="30" fill="white" transform="translate(0 0.355469)"/>
</clipPath>
<clipPath id="clip1">
<rect width="23" height="26" fill="white" transform="translate(3 4.35547)"/>
</clipPath>
</defs>
</svg>
