<svg width="29" height="30" viewBox="0 0 29 30" fill="none" xmlns="http://www.w3.org/2000/svg">
<g opacity="0.5" clip-path="url(#clip0)">
<path d="M14.7854 29.9999C14.6894 29.9999 14.5934 29.9999 14.4967 29.9995C12.2235 30.0052 10.1232 29.9454 8.08058 29.8168C6.2079 29.6989 4.4985 29.0295 3.13692 27.8809C1.82312 26.7727 0.925941 25.2742 0.470383 23.4276C0.0738984 21.8199 0.0528793 20.2418 0.0327454 18.7154C0.0181427 17.6202 0.00309753 16.3224 0 15.0027C0.00309753 13.6774 0.0181427 12.3797 0.0327454 11.2845C0.0528793 9.75829 0.0738984 8.18015 0.470383 6.57226C0.925941 4.72564 1.82312 3.22715 3.13692 2.1189C4.4985 0.970375 6.2079 0.300895 8.0808 0.183021C10.1234 0.0546186 12.2242 -0.00534845 14.5022 0.000373601C16.776 -0.0046618 18.8757 0.0546186 20.9183 0.183021C22.791 0.300895 24.5004 0.970375 25.862 2.1189C27.176 3.22715 28.073 4.72564 28.5285 6.57226C28.925 8.17992 28.946 9.75829 28.9661 11.2845C28.9808 12.3797 28.996 13.6774 28.9989 14.9972V15.0027C28.996 16.3224 28.9808 17.6202 28.9661 18.7154C28.946 20.2415 28.9252 21.8197 28.5285 23.4276C28.073 25.2742 27.176 26.7727 25.862 27.8809C24.5004 29.0295 22.791 29.6989 20.9183 29.8168C18.9622 29.94 16.9528 29.9999 14.7854 29.9999ZM14.4967 27.6557C16.7329 27.6612 18.7861 27.6028 20.7807 27.4774C22.1967 27.3884 23.4244 26.913 24.4303 26.0645C25.36 25.2801 26.0003 24.198 26.3332 22.848C26.6634 21.5098 26.6824 20.0729 26.7007 18.6833C26.7151 17.5954 26.7302 16.3068 26.7333 14.9999C26.7302 13.6928 26.7151 12.4044 26.7007 11.3165C26.6824 9.92698 26.6634 8.49006 26.3332 7.15156C26.0003 5.80161 25.36 4.71946 24.4303 3.93508C23.4244 3.08685 22.1967 2.61146 20.7807 2.52242C18.7861 2.39677 16.7329 2.33886 14.502 2.34389C12.2662 2.3384 10.2128 2.39677 8.2182 2.52242C6.80219 2.61146 5.57446 3.08685 4.56864 3.93508C3.63894 4.71946 2.99863 5.80161 2.66565 7.15156C2.33554 8.49006 2.31651 9.92675 2.29815 11.3165C2.28377 12.4053 2.26872 13.6946 2.26562 15.0027C2.26872 16.305 2.28377 17.5945 2.29815 18.6833C2.31651 20.0729 2.33554 21.5098 2.66565 22.848C2.99863 24.198 3.63894 25.2801 4.56864 26.0645C5.57446 26.9128 6.80219 27.3881 8.2182 27.4772C10.2128 27.6028 12.2667 27.6614 14.4967 27.6557ZM14.4427 22.3241C10.5389 22.3241 7.36262 19.0385 7.36262 14.9999C7.36262 10.9613 10.5389 7.6757 14.4427 7.6757C18.3467 7.6757 21.5228 10.9613 21.5228 14.9999C21.5228 19.0385 18.3467 22.3241 14.4427 22.3241ZM14.4427 10.0194C11.7881 10.0194 9.62824 12.2538 9.62824 14.9999C9.62824 17.746 11.7881 19.9804 14.4427 19.9804C17.0975 19.9804 19.2571 17.746 19.2571 14.9999C19.2571 12.2538 17.0975 10.0194 14.4427 10.0194ZM22.3157 5.33195C21.3774 5.33195 20.6165 6.11884 20.6165 7.08976C20.6165 8.06068 21.3774 8.84757 22.3157 8.84757C23.2543 8.84757 24.015 8.06068 24.015 7.08976C24.015 6.11884 23.2543 5.33195 22.3157 5.33195Z" fill="#33302F"/>
</g>
<defs>
<clipPath id="clip0">
<rect width="29" height="30" fill="white"/>
</clipPath>
</defs>
</svg>
