<svg width="138" height="66" viewBox="0 0 138 66" fill="none" xmlns="http://www.w3.org/2000/svg">
<path d="M63.5593 0.181641L60.9513 1.71896V3.42017H58.4423V5.03829L57.2123 5.84821L56.3335 7.801L54.202 58.2403L55.6929 58.5709L56.1343 64.7149H56.8065L58.3087 6.13203L59.0793 5.63394L59.093 4.04589H61.5381L61.5484 2.03297L63.572 0.832032L66.0425 0.617873L72.6617 0.181641H63.5593Z" fill="#33302F"/>
<path d="M77.313 59.0797H72.2446V11.9897H77.313V59.0797Z" fill="#33302F"/>
<path d="M70.3464 59.0719H66.9197V6.9751H70.3464V59.0719Z" fill="#33302F"/>
<path d="M65.0198 59.0797H59.9526V11.9897H65.0198V59.0797Z" fill="#33302F"/>
<path d="M5.12379 54.1294H2.51237L1.16639 57.8338C1.07409 58.1007 1.02821 58.2642 1.02821 58.3281C1.02821 58.4729 1.12612 58.5462 1.32226 58.5462V58.6475H0V58.5462C0.177196 58.5462 0.326508 58.4991 0.447309 58.4052C0.56759 58.3092 0.701182 58.0611 0.846019 57.659L4.0705 48.6865H4.22918L7.40091 57.3545C7.40091 57.3978 7.48279 57.6064 7.64469 57.9823C7.8067 58.3582 8.05507 58.5462 8.38761 58.5462V58.6475H6.31141V58.5462C6.50015 58.5462 6.59505 58.4655 6.59505 58.3017C6.59505 58.1911 6.54905 58.0141 6.45593 57.7682C6.43887 57.7491 6.42524 57.7191 6.41431 57.6815C6.40505 57.6365 6.40016 57.6139 6.39465 57.6139L5.12379 54.1294ZM2.59664 53.8586H5.00351L3.80153 50.5132L2.59664 53.8586Z" fill="#33302F"/>
<path d="M13.1968 48.9608L13.619 50.1862L13.5457 50.1994C13.5457 50.1978 13.435 50.0659 13.2104 49.8065C12.9886 49.5511 12.7324 49.3499 12.4432 49.2126C12.1561 49.0698 11.83 49.0003 11.4688 49.0003C10.8615 49.0003 10.3792 49.1921 10.021 49.5754C9.66617 49.9626 9.48773 50.4251 9.48773 50.9662C9.48773 51.3252 9.57305 51.6428 9.73932 51.9097C9.90559 52.1785 10.2554 52.4266 10.7861 52.6616C11.6987 53 12.324 53.2572 12.6598 53.4265C12.9973 53.5993 13.3208 53.887 13.6337 54.293C13.946 54.7026 14.1013 55.2269 14.1013 55.8622C14.1013 56.131 14.0741 56.3846 14.0159 56.629C13.9595 56.8696 13.8705 57.1027 13.7468 57.3245C13.6207 57.5501 13.4709 57.753 13.2951 57.939C13.1196 58.1232 12.9426 58.2604 12.7618 58.3582C12.5806 58.454 12.2943 58.5237 11.904 58.5743C11.5121 58.6232 11.2565 58.6475 11.1305 58.6475H8.75793V55.7983H8.84721C8.85512 56.7437 9.05686 57.4016 9.45225 57.7737C9.84659 58.1456 10.459 58.3357 11.2941 58.3357C12.0506 58.3357 12.6257 58.1383 13.0175 57.7415C13.4105 57.3471 13.607 56.8696 13.607 56.3135C13.607 55.9787 13.5374 55.6893 13.4029 55.4526C13.2644 55.2157 13.0736 55.0072 12.8286 54.8286C12.5819 54.6462 12.1161 54.4283 11.4338 54.1689C10.754 53.9056 10.276 53.6745 9.99809 53.4772C9.72454 53.2799 9.4921 52.983 9.30731 52.5844C9.11971 52.188 9.0294 51.7839 9.0294 51.3703C9.0294 50.613 9.26631 49.9738 9.73932 49.4608C10.2112 48.9457 10.8332 48.6865 11.6015 48.6865C11.9007 48.6865 12.2217 48.7259 12.5693 48.7991C12.9145 48.8762 13.108 48.927 13.148 48.9497C13.1641 48.9572 13.1794 48.9608 13.1968 48.9608Z" fill="#33302F"/>
<path d="M21.8558 48.498L21.4333 49.6859H21.3431C21.3576 49.6124 21.3671 49.5186 21.3671 49.3963C21.3671 49.2967 21.333 49.2328 21.2674 49.2008C21.2 49.1725 21.0953 49.1593 20.9495 49.1593H18.6297V57.5513C18.6297 57.897 18.6569 58.1339 18.7064 58.2616C18.7575 58.3857 18.8258 58.4666 18.9126 58.4984C18.9979 58.5343 19.1375 58.5493 19.3301 58.5493V58.6507H16.9215V58.5493C17.2238 58.5268 17.4141 58.4646 17.4896 58.3577C17.5656 58.2505 17.603 58.0306 17.603 57.6924V49.1593H15.3794C15.1555 49.1593 15.0098 49.1725 14.9399 49.2008C14.8724 49.2328 14.8377 49.3025 14.8377 49.4188C14.8377 49.4753 14.8531 49.5637 14.8871 49.6859H14.7967L14.3734 48.498H14.4638C14.5353 48.6596 14.6075 48.7555 14.6775 48.7892C14.7481 48.8231 14.8997 48.8363 15.1327 48.8363H21.0346C21.2679 48.8363 21.4369 48.8231 21.5392 48.7892C21.6404 48.7555 21.7165 48.6596 21.7641 48.498H21.8558Z" fill="#33302F"/>
<path d="M26.0137 54.1294H23.4018L22.0562 57.8338C21.9626 58.1007 21.9158 58.2642 21.9158 58.3281C21.9158 58.4729 22.0155 58.5462 22.213 58.5462V58.6475H20.891V58.5462C21.0663 58.5462 21.2164 58.4991 21.3375 58.4052C21.4584 58.3092 21.5896 58.0611 21.7344 57.659L24.9584 48.6865H25.119L28.2902 57.3545C28.2902 57.3978 28.3718 57.6064 28.5348 57.9823C28.6974 58.3582 28.9443 58.5462 29.2786 58.5462V58.6475H27.2004V58.5462C27.3896 58.5462 27.485 58.4655 27.485 58.3017C27.485 58.1911 27.4372 58.0141 27.347 57.7682C27.33 57.7491 27.3163 57.7191 27.3036 57.6815C27.2958 57.6365 27.2893 57.6139 27.2857 57.6139L26.0137 54.1294ZM23.4876 53.8586H25.8935L24.6914 50.5132L23.4876 53.8586Z" fill="#33302F"/>
<path d="M37.1165 48.835H38.8377V48.9384C38.5751 48.9458 38.3947 49.0079 38.294 49.1205C38.1936 49.2334 38.1434 49.472 38.1434 49.8349V58.7679L31.0483 50.4324V57.6911C31.0483 57.9221 31.0636 58.0932 31.096 58.2021C31.1275 58.3151 31.1752 58.3901 31.2339 58.4296C31.2935 58.4691 31.4453 58.5086 31.6883 58.548V58.6494H29.9781V58.548C30.2849 58.548 30.474 58.4878 30.5489 58.3675C30.6242 58.2492 30.6617 57.9636 30.6617 57.5105V50.8742C30.6617 50.2916 30.5883 49.8179 30.4391 49.4477C30.2936 49.0811 29.9536 48.9101 29.4226 48.9384V48.835H31.096L37.7608 56.6668V49.7408C37.7608 49.3687 37.7021 49.1413 37.5809 49.0605C37.461 48.9777 37.306 48.9384 37.1165 48.9384V48.835Z" fill="#33302F"/>
<path d="M44.1314 54.1294H41.5204L40.1723 57.8338C40.0803 58.1007 40.0355 58.2642 40.0355 58.3281C40.0355 58.4729 40.1333 58.5462 40.3308 58.5462V58.6475H39.0084V58.5462C39.1833 58.5462 39.3349 58.4991 39.4551 58.4052C39.5742 58.3092 39.7073 58.0611 39.8522 57.659L43.0765 48.6865H43.2368L46.4088 57.3545C46.4088 57.3978 46.4886 57.6064 46.6523 57.9823C46.8151 58.3582 47.063 58.5462 47.396 58.5462V58.6475H45.3184V58.5462C45.5075 58.5462 45.6021 58.4655 45.6021 58.3017C45.6021 58.1911 45.5566 58.0141 45.4647 57.7682C45.448 57.7491 45.4344 57.7191 45.4204 57.6815C45.4136 57.6365 45.4068 57.6139 45.4037 57.6139L44.1314 54.1294ZM41.6056 53.8586H44.0124L42.81 50.5132L41.6056 53.8586Z" fill="#33302F"/>
<path d="M97.4722 48.498L97.0488 49.6859H96.9609C96.9763 49.6124 96.9833 49.5186 96.9833 49.3963C96.9833 49.2967 96.9509 49.2328 96.8843 49.2008C96.8161 49.1725 96.7096 49.1593 96.5674 49.1593H94.2449V57.5513C94.2449 57.897 94.2706 58.1339 94.3215 58.2616C94.373 58.3857 94.4427 58.4666 94.5268 58.4984C94.6147 58.5343 94.7564 58.5493 94.9473 58.5493V58.6507H92.5378V58.5493C92.839 58.5268 93.0285 58.4646 93.1051 58.3577C93.1835 58.2505 93.2208 58.0306 93.2208 57.6924V49.1593H90.9965C90.7724 49.1593 90.6269 49.1725 90.5575 49.2008C90.4887 49.2328 90.4528 49.3025 90.4528 49.4188C90.4528 49.4753 90.4691 49.5637 90.5032 49.6859H90.413L89.9902 48.498H90.0804C90.1521 48.6596 90.2222 48.7555 90.2938 48.7892C90.3644 48.8231 90.5168 48.8363 90.7485 48.8363H96.6535C96.8855 48.8363 97.0532 48.8231 97.157 48.7892C97.2573 48.7555 97.3326 48.6596 97.382 48.498H97.4722Z" fill="#33302F"/>
<path d="M102.629 48.6865C103.878 48.6865 104.899 49.1057 105.691 49.9438C106.484 50.7822 106.883 51.8251 106.883 53.0769C106.883 54.6875 106.421 56.0466 105.504 57.146C104.587 58.2491 103.37 58.8018 101.851 58.8018C100.619 58.8018 99.6099 58.3545 98.8245 57.4692C98.0409 56.5802 97.6471 55.5126 97.6471 54.2704C97.6471 53.4322 97.8365 52.5696 98.2161 51.6843C98.5927 50.8027 99.1655 50.081 99.925 49.5247C100.687 48.9683 101.588 48.6865 102.629 48.6865ZM102.594 58.2812C103.207 58.2812 103.812 58.1007 104.403 57.736C105.003 57.3772 105.471 56.8771 105.814 56.2438C106.155 55.6067 106.325 54.9545 106.325 54.2837C106.325 53.3326 106.095 52.4698 105.633 51.6936C105.174 50.9173 104.575 50.3065 103.839 49.8668C103.108 49.4269 102.427 49.2091 101.803 49.2091C100.922 49.2091 100.123 49.5754 99.4032 50.3065C98.684 51.0415 98.3243 51.9492 98.3243 53.0392C98.3243 54.4283 98.7633 55.6499 99.6406 56.7005C100.519 57.753 101.503 58.2812 102.594 58.2812Z" fill="#33302F"/>
<path d="M116.4 58.8036H116.25L113.793 51.3214L111.385 58.8036H111.249L108.353 50.0415C108.24 49.6884 108.111 49.4139 107.981 49.2257C107.846 49.0322 107.653 48.9384 107.4 48.9384V48.835H109.502V48.9384C109.296 48.9384 109.196 49.0192 109.196 49.1827C109.196 49.2823 109.227 49.4288 109.293 49.63L111.649 56.7645L113.584 50.737L113.397 50.1638C113.232 49.6599 113.073 49.3293 112.924 49.1712C112.77 49.0154 112.602 48.9384 112.413 48.9384V48.835H114.493V48.9384C114.29 48.9384 114.19 49.0322 114.19 49.2257C114.19 49.2823 114.232 49.4345 114.314 49.6807L116.667 56.7889L119.014 49.5586C119.019 49.5396 119.024 49.5285 119.025 49.5248L119.117 49.1827C119.117 49.0192 119.012 48.9384 118.802 48.9384V48.835H120.099V48.9384C119.744 48.9402 119.465 49.2597 119.261 49.8892L116.4 58.8036Z" fill="#33302F"/>
<path d="M120.853 48.9516V48.835H126.445V50.1881H126.355C126.233 49.6884 126.131 49.3912 126.048 49.3048C125.969 49.2145 125.765 49.1695 125.443 49.1695H122.508V53.5731H125.23C125.501 53.5731 125.673 53.5468 125.745 53.4905C125.818 53.4341 125.857 53.3514 125.86 53.2479H125.951V54.1727H125.86C125.84 54.0429 125.794 53.9582 125.718 53.9115C125.642 53.8662 125.504 53.8456 125.305 53.8456H122.508V56.8772C122.508 57.3338 122.548 57.6648 122.623 57.8677C122.699 58.0707 122.822 58.1965 122.988 58.2475C123.153 58.2962 123.407 58.3206 123.744 58.3206H125.312C125.811 58.3206 126.129 58.3036 126.268 58.266C126.406 58.2304 126.525 58.1532 126.62 58.0406C126.717 57.9277 126.792 57.6816 126.844 57.3038H126.934V58.6494H120.853V58.548C121.058 58.5367 121.214 58.4918 121.32 58.4183C121.429 58.3452 121.481 58.157 121.481 57.8508V49.9288C121.481 49.5698 121.452 49.3162 121.397 49.1695C121.34 49.0247 121.159 48.9516 120.853 48.9516Z" fill="#33302F"/>
<path d="M127.805 48.9384V48.835H130.33C130.971 48.835 131.434 48.8518 131.721 48.8838C132.005 48.9159 132.298 49.0192 132.598 49.194C132.899 49.3688 133.125 49.6075 133.276 49.9062C133.432 50.207 133.507 50.5753 133.507 51.0094C133.507 51.5095 133.372 51.9812 133.099 52.4342C132.827 52.8872 132.443 53.2665 131.949 53.5788L132.576 54.6426C132.714 54.9075 133.076 55.4919 133.665 56.3922C134.256 57.2907 134.713 57.8393 135.036 58.0406C135.357 58.2378 135.671 58.3375 135.972 58.3375C136.269 58.3375 136.611 58.2079 136.999 57.9561L137.034 58.0894C136.55 58.5236 135.924 58.7436 135.153 58.7436C134.638 58.7436 134.195 58.5743 133.823 58.2378C133.454 57.9015 132.811 56.9786 131.891 55.4694C131.884 55.46 131.879 55.4525 131.879 55.4431L130.986 53.9245L130.192 53.9528H129.473V57.7022C129.473 58.0068 129.509 58.221 129.581 58.3525C129.652 58.4822 129.825 58.548 130.103 58.548V58.6494H127.805V58.548C128.091 58.5367 128.27 58.4691 128.341 58.3487C128.41 58.2304 128.447 57.9842 128.447 57.6176V49.8216C128.447 49.5698 128.417 49.3574 128.357 49.192C128.294 49.0266 128.114 48.9402 127.805 48.9384ZM129.473 49.0944V53.6988H130.405C131.141 53.6988 131.685 53.5074 132.039 53.1257C132.395 52.7441 132.57 52.2424 132.57 51.6222C132.57 51.0168 132.395 50.4439 132.05 49.9062C131.7 49.3668 131.085 49.0944 130.207 49.0944H129.473Z" fill="#33302F"/>
<path d="M137.05 65.0081H0.00439453V64.2168H137.05V65.0081Z" fill="#33302F"/>
</svg>
