<svg width="100" height="55" viewBox="0 0 100 55" fill="#FAFAFA" xmlns="http://www.w3.org/2000/svg">
<path d="M46.3768 0.819641L44.4739 2.08716V3.48981H42.6432V4.82396L41.7457 5.49174L41.1044 7.10181L39.5492 48.6891L40.6371 48.9617L40.9591 54.0274H41.4496L42.5457 5.72575L43.108 5.31507L43.1179 4.00572H44.9021L44.9096 2.34607L46.3861 1.35589L48.1887 1.17932L53.0185 0.819641H46.3768Z" />
<path d="M56.4125 49.3811H52.7144V10.5554H56.4125V49.3811Z" />
<path d="M51.329 49.3744H48.8286V6.42053H51.329V49.3744Z" />
<path d="M47.4426 49.3811H43.7452V10.5554H47.4426V49.3811Z" />
<path d="M3.73864 45.2999H1.83318L0.851069 48.3542C0.783727 48.5743 0.750244 48.709 0.750244 48.7617C0.750244 48.8812 0.821691 48.9415 0.964802 48.9415V49.0251H0V48.9415C0.129293 48.9415 0.238241 48.9027 0.326385 48.8253C0.414149 48.7461 0.511627 48.5416 0.617308 48.2101L2.9701 40.8123H3.08587L5.40017 47.959C5.40017 47.9947 5.45992 48.1667 5.57805 48.4766C5.69626 48.7865 5.87748 48.9415 6.12012 48.9415V49.0251H4.6052V48.9415C4.74292 48.9415 4.81216 48.875 4.81216 48.74C4.81216 48.6488 4.7786 48.5029 4.71065 48.3001C4.6982 48.2844 4.68826 48.2597 4.68028 48.2286C4.67353 48.1915 4.66996 48.1729 4.66594 48.1729L3.73864 45.2999ZM1.89468 45.0766H3.65088L2.77384 42.3183L1.89468 45.0766Z" />
<path d="M9.62911 41.0384L9.9372 42.0487L9.88375 42.0596C9.88375 42.0583 9.80297 41.9496 9.63906 41.7357C9.4772 41.5251 9.29028 41.3592 9.07929 41.246C8.86975 41.1283 8.63182 41.071 8.3683 41.071C7.92515 41.071 7.57325 41.2291 7.31186 41.5451C7.05297 41.8644 6.92276 42.2458 6.92276 42.6918C6.92276 42.9878 6.98502 43.2497 7.10634 43.4697C7.22766 43.6914 7.48291 43.896 7.87011 44.0897C8.53601 44.3687 8.99229 44.5808 9.23729 44.7203C9.48357 44.8628 9.71961 45.1001 9.9479 45.4348C10.1758 45.7725 10.2891 46.2048 10.2891 46.7286C10.2891 46.9502 10.2693 47.1593 10.2268 47.3608C10.1857 47.5592 10.1207 47.7514 10.0304 47.9342C9.93841 48.1203 9.82916 48.2876 9.70086 48.441C9.57278 48.5928 9.44364 48.7059 9.31176 48.7865C9.17951 48.8655 8.97065 48.923 8.68579 48.9647C8.39988 49.005 8.21334 49.0251 8.1214 49.0251H6.39026V46.6759H6.4554C6.46117 47.4554 6.60838 47.9978 6.89687 48.3046C7.18461 48.6113 7.63149 48.768 8.24083 48.768C8.79277 48.768 9.21246 48.6052 9.4983 48.2781C9.78505 47.9529 9.92847 47.5592 9.92847 47.1007C9.92847 46.8247 9.87768 46.5861 9.77951 46.3909C9.67846 46.1956 9.53922 46.0236 9.3605 45.8764C9.18049 45.726 8.8406 45.5463 8.34271 45.3325C7.84672 45.1154 7.49794 44.9248 7.29515 44.7622C7.09556 44.5995 6.92595 44.3547 6.79112 44.0261C6.65423 43.6992 6.58833 43.366 6.58833 43.025C6.58833 42.4007 6.7612 41.8736 7.10634 41.4506C7.45064 41.0259 7.9045 40.8123 8.4651 40.8123C8.68345 40.8123 8.91766 40.8447 9.17131 40.9051C9.42314 40.9687 9.56435 41.0105 9.59351 41.0292C9.60527 41.0354 9.61643 41.0384 9.62911 41.0384Z" />
<path d="M15.9474 40.6565L15.6392 41.6359H15.5733C15.5839 41.5753 15.5908 41.4979 15.5908 41.3971C15.5908 41.315 15.566 41.2623 15.5181 41.2359C15.4689 41.2126 15.3925 41.2017 15.2861 41.2017H13.5935V48.1209C13.5935 48.4059 13.6133 48.6013 13.6494 48.7066C13.6867 48.8089 13.7365 48.8756 13.7998 48.9018C13.8621 48.9314 13.964 48.9438 14.1045 48.9438V49.0274H12.347V48.9438C12.5676 48.9252 12.7065 48.874 12.7615 48.7858C12.817 48.6974 12.8443 48.5161 12.8443 48.2372V41.2017H11.2218C11.0585 41.2017 10.9521 41.2126 10.9011 41.2359C10.8519 41.2623 10.8265 41.3197 10.8265 41.4157C10.8265 41.4622 10.8378 41.5351 10.8626 41.6359H10.7966L10.4878 40.6565H10.5538C10.6059 40.7897 10.6586 40.8687 10.7097 40.8966C10.7612 40.9245 10.8718 40.9354 11.0418 40.9354H15.3482C15.5184 40.9354 15.6417 40.9245 15.7164 40.8966C15.7902 40.8687 15.8457 40.7897 15.8805 40.6565H15.9474Z" />
<path d="M18.9813 45.2999H17.0754L16.0936 48.3542C16.0253 48.5743 15.9912 48.709 15.9912 48.7617C15.9912 48.8812 16.064 48.9415 16.2081 48.9415V49.0251H15.2434V48.9415C15.3713 48.9415 15.4808 48.9027 15.5692 48.8253C15.6574 48.7461 15.7531 48.5416 15.8588 48.2101L18.2112 40.8123H18.3284L20.6424 47.959C20.6424 47.9947 20.7019 48.1667 20.8208 48.4766C20.9394 48.7865 21.1196 48.9415 21.3635 48.9415V49.0251H19.8472V48.9415C19.9852 48.9415 20.0548 48.875 20.0548 48.74C20.0548 48.6488 20.02 48.5029 19.9541 48.3001C19.9417 48.2844 19.9317 48.2597 19.9225 48.2286C19.9168 48.1915 19.912 48.1729 19.9094 48.1729L18.9813 45.2999ZM17.1381 45.0766H18.8935L18.0164 42.3183L17.1381 45.0766Z" />
<path d="M27.0826 40.9342H28.3385V41.0195C28.1468 41.0256 28.0152 41.0768 27.9418 41.1696C27.8685 41.2627 27.8318 41.4595 27.8318 41.7587V49.124L22.6548 42.2513V48.2361C22.6548 48.4266 22.666 48.5677 22.6897 48.6575C22.7126 48.7506 22.7474 48.8125 22.7903 48.845C22.8338 48.8776 22.9445 48.9101 23.1218 48.9427V49.0262H21.874V48.9427C22.0978 48.9427 22.2358 48.893 22.2905 48.7938C22.3454 48.6963 22.3728 48.4608 22.3728 48.0872V42.6155C22.3728 42.1352 22.3192 41.7447 22.2103 41.4394C22.1042 41.1372 21.8561 40.9962 21.4686 41.0195V40.9342H22.6897L27.5527 47.3915V41.6811C27.5527 41.3743 27.5099 41.1868 27.4214 41.1201C27.334 41.0519 27.2208 41.0195 27.0826 41.0195V40.9342Z" />
<path d="M32.201 45.2999H30.2959L29.3123 48.3542C29.2451 48.5743 29.2124 48.709 29.2124 48.7617C29.2124 48.8812 29.2838 48.9415 29.4279 48.9415V49.0251H28.463V48.9415C28.5906 48.9415 28.7012 48.9027 28.7889 48.8253C28.8759 48.7461 28.973 48.5416 29.0787 48.2101L31.4314 40.8123H31.5483L33.8628 47.959C33.8628 47.9947 33.921 48.1667 34.0405 48.4766C34.1593 48.7865 34.3401 48.9415 34.5831 48.9415V49.0251H33.0671V48.9415C33.2052 48.9415 33.2742 48.875 33.2742 48.74C33.2742 48.6488 33.241 48.5029 33.1739 48.3001C33.1617 48.2844 33.1518 48.2597 33.1416 48.2286C33.1366 48.1915 33.1317 48.1729 33.1294 48.1729L32.201 45.2999ZM30.3581 45.0766H32.1142L31.2368 42.3183L30.3581 45.0766Z" />
<path d="M71.1218 40.6565L70.8129 41.6359H70.7487C70.7599 41.5753 70.765 41.4979 70.765 41.3971C70.765 41.315 70.7414 41.2623 70.6928 41.2359C70.643 41.2126 70.5654 41.2017 70.4616 41.2017H68.767V48.1209C68.767 48.4059 68.7857 48.6013 68.8228 48.7066C68.8604 48.8089 68.9113 48.8756 68.9726 48.9018C69.0368 48.9314 69.1402 48.9438 69.2795 48.9438V49.0274H67.5213V48.9438C67.7411 48.9252 67.8794 48.874 67.9353 48.7858C67.9925 48.6974 68.0197 48.5161 68.0197 48.2372V41.2017H66.3967C66.2332 41.2017 66.127 41.2126 66.0764 41.2359C66.0262 41.2623 66 41.3197 66 41.4157C66 41.4622 66.0119 41.5351 66.0368 41.6359H65.9709L65.6625 40.6565H65.7283C65.7806 40.7897 65.8317 40.8687 65.884 40.8966C65.9355 40.9245 66.0467 40.9354 66.2157 40.9354H70.5244C70.6937 40.9354 70.8161 40.9245 70.8918 40.8966C70.965 40.8687 71.0199 40.7897 71.056 40.6565H71.1218Z" />
<path d="M74.8848 40.8123C75.7963 40.8123 76.5409 41.1578 77.1192 41.8489C77.6977 42.5401 77.9883 43.4 77.9883 44.4321C77.9883 45.7601 77.6518 46.8807 76.9822 47.7871C76.3134 48.6967 75.4251 49.1523 74.3166 49.1523C73.418 49.1523 72.6817 48.7835 72.1086 48.0536C71.5369 47.3206 71.2495 46.4404 71.2495 45.4161C71.2495 44.7251 71.3877 44.0139 71.6647 43.2839C71.9395 42.5571 72.3574 41.962 72.9116 41.5033C73.4674 41.0446 74.1252 40.8123 74.8848 40.8123ZM74.8589 48.7231C75.3064 48.7231 75.7476 48.5743 76.1792 48.2736C76.6168 47.9778 76.9586 47.5654 77.2084 47.0432C77.4578 46.518 77.5817 45.9802 77.5817 45.4271C77.5817 44.6429 77.4137 43.9315 77.0768 43.2916C76.7418 42.6515 76.3048 42.1479 75.7676 41.7854C75.2344 41.4227 74.7369 41.2431 74.2818 41.2431C73.6392 41.2431 73.056 41.5451 72.5309 42.1479C72.0061 42.7539 71.7437 43.5023 71.7437 44.4011C71.7437 45.5463 72.064 46.5536 72.7041 47.4198C73.345 48.2876 74.0632 48.7231 74.8589 48.7231Z" />
<path d="M84.9325 49.1534H84.823L83.0309 42.9843L81.2737 49.1534H81.174L79.061 41.929C78.9785 41.6378 78.885 41.4115 78.7896 41.2564C78.6911 41.0969 78.5508 41.0195 78.3656 41.0195V40.9342H79.8998V41.0195C79.7494 41.0195 79.676 41.0861 79.676 41.2209C79.676 41.3031 79.699 41.4238 79.7468 41.5897L81.4664 47.4721L82.8782 42.5024L82.7419 42.0298C82.6212 41.6144 82.5056 41.3418 82.3963 41.2115C82.2845 41.083 82.1619 41.0195 82.0235 41.0195V40.9342H83.5415V41.0195C83.3934 41.0195 83.32 41.0969 83.32 41.2564C83.32 41.3031 83.3506 41.4285 83.4109 41.6315L85.1277 47.4922L86.8403 41.5308C86.8434 41.5152 86.8472 41.506 86.8479 41.503L86.9156 41.2209C86.9156 41.0861 86.8386 41.0195 86.6857 41.0195V40.9342H87.6317V41.0195C87.3731 41.021 87.1692 41.2844 87.0206 41.8034L84.9325 49.1534Z" />
<path d="M88.1819 41.0303V40.9342H92.2618V42.0498H92.1966C92.1078 41.6378 92.0331 41.3929 91.9723 41.3216C91.9149 41.2471 91.7658 41.21 91.5308 41.21H89.3898V44.8408H91.3754C91.5731 44.8408 91.6986 44.8191 91.751 44.7727C91.8044 44.7262 91.8331 44.658 91.8356 44.5727H91.9014V45.3352H91.8356C91.8204 45.2282 91.7868 45.1583 91.7318 45.1198C91.6763 45.0824 91.5757 45.0655 91.4301 45.0655H89.3898V47.5651C89.3898 47.9415 89.4185 48.2144 89.4732 48.3817C89.529 48.5491 89.6185 48.6528 89.7394 48.6948C89.8599 48.735 90.0451 48.7551 90.2912 48.7551H91.4351C91.7994 48.7551 92.0318 48.7411 92.1333 48.7102C92.234 48.6807 92.3205 48.6171 92.3898 48.5243C92.4608 48.4312 92.515 48.2283 92.5534 47.9168H92.6188V49.0262H88.1819V48.9426C88.3313 48.9333 88.445 48.8963 88.5226 48.8357C88.6018 48.7754 88.6402 48.6203 88.6402 48.3678V41.8361C88.6402 41.5401 88.6189 41.331 88.5786 41.21C88.5374 41.0906 88.4054 41.0303 88.1819 41.0303Z" />
<path d="M93.2548 41.0195V40.9342H95.0974C95.5649 40.9342 95.9024 40.9481 96.112 40.9745C96.3195 41.0009 96.5333 41.0861 96.7521 41.2302C96.9715 41.3743 97.1363 41.5711 97.2469 41.8174C97.3601 42.0655 97.4149 42.3691 97.4149 42.727C97.4149 43.1394 97.3168 43.5283 97.1178 43.9018C96.9188 44.2753 96.639 44.588 96.2784 44.8455L96.736 45.7226C96.8367 45.941 97.1004 46.4228 97.5305 47.1652C97.9619 47.906 98.2951 48.3583 98.5305 48.5243C98.7651 48.6869 98.9939 48.7691 99.2137 48.7691C99.4309 48.7691 99.6802 48.6622 99.9629 48.4546L99.989 48.5645C99.6358 48.9225 99.1791 49.1039 98.616 49.1039C98.2404 49.1039 97.9171 48.9643 97.646 48.6869C97.3762 48.4096 96.9076 47.6486 96.2362 46.4043C96.2312 46.3965 96.2274 46.3904 96.2274 46.3826L95.576 45.1305L94.996 45.1539H94.4719V48.2452C94.4719 48.4964 94.4979 48.673 94.5503 48.7814C94.6026 48.8883 94.7285 48.9426 94.9313 48.9426V49.0262H93.2548V48.9426C93.4636 48.9333 93.5937 48.8775 93.6459 48.7783C93.6962 48.6807 93.7233 48.4777 93.7233 48.1755V41.7477C93.7233 41.5401 93.701 41.3649 93.6575 41.2286C93.6115 41.0922 93.4799 41.021 93.2548 41.0195ZM94.4719 41.1481V44.9445H95.152C95.6885 44.9445 96.0858 44.7866 96.3442 44.4719C96.6036 44.1573 96.7316 43.7437 96.7316 43.2323C96.7316 42.7331 96.6036 42.2608 96.3518 41.8174C96.097 41.3727 95.6476 41.1481 95.007 41.1481H94.4719Z" />
<path d="M100 54.2689H0.0032959V53.6165H100V54.2689Z" />
</svg>
