<svg width="122" height="38" viewBox="0 0 122 38" fill="none" xmlns="http://www.w3.org/2000/svg">
<path fill-rule="evenodd" clip-rule="evenodd" d="M67.4996 1.01741C62.3128 1.92858 57.469 4.77409 54.0918 8.89375C47.9125 16.4315 46.1466 19.2167 44.1841 24.519C42.7345 28.436 42.8718 32.1034 44.5289 33.7255C45.2009 34.383 45.4135 34.4671 46.1917 34.3824C46.6824 34.3288 47.2821 34.2055 47.5243 34.1078C47.9127 33.9516 47.9337 33.9845 47.7013 34.3852C47.2498 35.1639 47.3765 36.5416 47.9444 37.03C49.551 38.4116 52.4963 37.4643 57.0826 34.0906C58.723 32.884 60.6701 31.2909 61.4096 30.5501C62.1493 29.8093 62.8038 29.2034 62.8639 29.2034C62.9244 29.2034 63.0452 29.5934 63.1323 30.0699C63.3228 31.11 64.1106 32.2498 64.9105 32.6424C66.3046 33.3263 69.4114 32.455 72.6413 30.4741L74.361 29.4195L75.0233 29.8716C75.5415 30.2255 76.171 30.3503 77.9223 30.4468C79.8914 30.5553 80.4307 30.4989 82.426 29.9764L84.6925 29.3827L85.5625 30.2714C86.2659 30.9902 86.7905 31.2647 88.307 31.707C90.5593 32.3637 91.1309 32.3713 96.8842 31.8192C102.929 31.2392 106.69 30.3377 109.031 28.9071C109.49 28.6269 110.376 28.3271 111 28.2406C112.472 28.0368 115.853 27.1013 116.269 26.783C116.745 26.4182 116.662 25.7672 116.104 25.4916C115.732 25.3077 115.358 25.3317 114.528 25.5929C113.097 26.0428 112.485 26.0413 112.673 25.5881C113.253 24.1939 112.99 23.4568 111.742 22.9753C110.051 22.3232 108.362 22.9014 107.696 24.3604C107.357 25.1022 107.358 25.26 107.71 26.1823C107.922 26.7376 108.095 27.2351 108.095 27.2876C108.095 27.512 105.937 28.3456 104.057 28.8471C102.09 29.372 100.687 29.5884 96.1494 30.0662C90.3681 30.6752 86.5847 29.9533 86.9409 28.3092C87.0096 27.9918 86.9291 27.5593 86.762 27.3484C86.3957 26.8858 86.1266 26.925 82.2509 28.0066C79.6804 28.7238 79.277 28.7805 77.8862 28.6188C76.4228 28.4489 76.348 28.4112 76.2324 27.7872C76.0277 26.6825 75.2907 26.8115 72.6958 28.4064C70.1886 29.9474 67.3703 31.1643 66.3082 31.1643C65.3197 31.1643 64.9034 30.4675 64.9034 28.8138C64.9034 27.2475 64.9626 27.1152 66.5152 25.2218C68.2346 23.1248 71.1881 18.1791 72.2257 15.6593C73.4157 12.7694 73.9331 10.4429 73.9623 7.8512C74.0027 4.28146 73.2083 2.25627 71.4563 1.46319C70.5606 1.05772 68.556 0.831775 67.4996 1.01741ZM25.3336 2.76371C22.6585 4.06206 20.7546 5.23882 19.0755 6.63216C18.3396 7.24266 16.551 8.72271 15.1007 9.92105C11.0839 13.24 7.79019 16.1648 7.22917 16.9106C6.42906 17.9741 5.1621 19.584 3.9971 21.0174C3.40587 21.7449 2.38154 23.3346 1.72092 24.5501C-0.169132 28.0275 -0.463449 30.0817 0.647028 32.0443C1.52573 33.5967 2.5451 34.0834 4.94449 34.0961L6.72432 34.1057L9.67458 32.523C12.7464 30.8752 13.7266 30.0629 14.8706 28.2173C15.3698 27.412 15.9523 26.8827 17.0514 26.2356C19.05 25.0595 24.2387 21.2325 24.5403 20.7122C24.9092 20.076 24.8328 19.0284 24.4065 18.8774C23.6739 18.6179 23.3619 18.7567 22.7869 19.5973C22.2358 20.4034 20.811 21.5144 16.9645 24.1377C15.4878 25.1447 15.1512 25.2815 14.1512 25.2815C12.0784 25.2815 10.6937 27.0917 12.0803 27.9883L12.5982 28.3229L12.0379 28.8735C11.5233 29.3792 9.42392 30.6135 8.43264 30.993C8.2037 31.0806 7.62143 31.4 7.13877 31.7029C5.59284 32.6727 2.89536 32.3622 2.35251 31.1523C1.77096 29.8559 2.14552 27.9941 3.50288 25.4356C4.18899 24.1423 5.04621 22.7696 5.4078 22.3853C5.76938 22.0009 6.36156 21.2453 6.72385 20.7061C7.94596 18.8866 11.7688 14.9273 13.4509 13.739C14.0351 13.3263 15.3122 12.2741 16.2891 11.4007C17.2659 10.5274 18.328 9.64914 18.6493 9.44891C18.9705 9.24889 19.8176 8.58109 20.5315 7.96493C23.0079 5.82775 26.9343 3.71149 28.4231 3.71149C29.6849 3.71149 30.1007 4.85971 29.4569 6.56593C28.856 8.15753 25.4301 12.665 23.2653 14.712C22.6054 15.336 21.2691 16.6561 20.2955 17.6457C17.3684 20.6211 13.6699 22.8352 12.0853 22.5607C10.6236 22.3077 10.1001 23.3483 11.2639 24.1935C12.0685 24.7776 12.7315 24.6819 15.0039 23.6538C17.3611 22.5873 19.4005 21.1251 21.6982 18.8541C22.7893 17.7756 24.3805 16.2069 25.234 15.368C26.0877 14.5292 27.7561 12.5099 28.9416 10.8808C30.729 8.42465 31.16 7.66491 31.4642 6.43302C31.8022 5.06604 31.7996 4.85928 31.4328 3.84309C31.1114 2.95218 30.852 2.6441 30.0904 2.24821C28.6558 1.50306 27.7233 1.60394 25.3336 2.76371ZM70.1872 2.8306C70.9462 3.09707 71.4756 4.0492 71.8075 5.74517C72.1426 7.45836 72.1417 7.97038 71.8006 10.3335C71.3612 13.3777 70.2542 16.3119 68.1631 19.9771C67.1267 21.7929 66.0717 23.484 65.818 23.7355C65.4441 24.1059 65.0759 24.1922 63.8692 24.1922C60.3383 24.1922 54.7661 27.003 51.2357 30.5651C49.9175 31.8951 49.5552 31.8951 50.5479 30.5651C50.973 29.9958 51.892 28.4517 52.5904 27.1335C54.9372 22.7045 56.0191 19.7391 55.8919 18.0861C55.8242 17.208 55.7529 17.1043 55.1758 17.0429C54.637 16.9856 54.514 17.0723 54.4033 17.5876C53.9525 19.6844 53.644 20.6222 52.7323 22.667C51.1911 26.1239 49.7306 28.689 48.2149 30.6017C46.588 32.6548 46.1348 32.9733 45.6675 32.3927C45.2053 31.8184 44.9908 29.8805 45.1867 28.0458C45.3791 26.2424 47.0288 21.8201 48.3293 19.6215C51.5607 14.1582 57.2563 7.51697 60.419 5.52468C63.9315 3.3119 68.2025 2.13404 70.1872 2.8306ZM44.8888 7.24113C44.7331 7.38493 44.6056 7.71567 44.6056 7.97626C44.6056 8.64253 44.1012 9.88663 42.8281 12.3602C42.2235 13.5352 41.5619 14.8887 41.358 15.368C41.1541 15.8474 40.645 16.7298 40.2267 17.329C39.8085 17.9281 39.3907 18.6635 39.2985 18.963C39.1165 19.5526 37.0119 22.9359 35.6647 24.8046C34.7133 26.1245 32.718 28.114 32.3458 28.114C31.8475 28.114 32.1159 26.8878 32.8702 25.7173C35.9215 20.9841 36.3411 17.4379 33.8502 17.4379C32.8782 17.4379 31.9991 18.3299 28.809 22.5526C24.9765 27.6253 23.2613 30.7915 22.9748 33.323C22.7239 35.5384 23.8127 36.4219 25.6985 35.5339C26.8264 35.0027 27.9574 33.6734 29.1925 31.4275C30.2811 29.4478 30.4217 29.3354 31.304 29.7418C32.2136 30.1607 32.9901 29.954 34.2962 28.9452C35.5092 28.0085 37.6208 25.4687 38.6064 23.7614C38.9853 23.1049 39.6414 22.0887 40.0646 21.5031C40.4878 20.9172 40.9022 20.1797 40.9858 19.864C41.0693 19.5483 41.493 18.7733 41.9275 18.1419C42.362 17.5102 42.7175 16.9448 42.7175 16.8849C42.7175 16.8252 43.5294 15.1358 44.5218 13.1309C46.4537 9.22754 46.811 7.9573 46.1487 7.34593C45.6807 6.91388 45.2795 6.88054 44.8888 7.24113ZM33.5051 20.2159C33.5011 20.3056 33.3444 20.5662 33.1572 20.7945C32.9698 21.0231 32.6587 21.7112 32.4659 22.3241C32.2728 22.9367 31.8058 23.8773 31.4276 24.4144C30.4508 25.8023 28.1307 29.4947 27.2881 31.0028C26.4903 32.4308 25.1504 33.9667 24.8996 33.7405C24.3414 33.2374 26.8682 28.2878 29.3849 24.9547C30.1088 23.9961 31.2306 22.501 31.878 21.6321C32.9151 20.2403 33.5285 19.7062 33.5051 20.2159ZM63.2513 25.8459C63.2513 26.4951 58.1905 31.2909 55.4583 33.2311C53.9051 34.334 50.6912 35.9422 50.0202 35.9522C49.8179 35.9552 49.4509 35.8217 49.2047 35.6554C48.7721 35.3635 48.7796 35.3254 49.4301 34.5116C49.8002 34.0488 51.3903 32.4934 52.9636 31.0554C55.4574 28.7761 56.0963 28.3173 57.9448 27.4771C59.1107 26.9472 60.5429 26.3391 61.1271 26.1256C62.1818 25.7404 63.2513 25.5994 63.2513 25.8459ZM19.4286 29.0681C19.0616 29.3531 18.5501 29.6237 18.2919 29.6696C17.7335 29.769 17.5461 30.4045 17.9447 30.8479C18.4562 31.4168 19.3543 31.2131 20.3385 30.3045C21.1388 29.5657 21.2332 29.3816 21.0104 28.9973C20.6717 28.4131 20.2471 28.4321 19.4286 29.0681ZM38.6485 29.4128C38.4226 29.657 38.0773 29.857 37.8814 29.857C37.6853 29.857 37.525 29.898 37.525 29.9481C37.525 29.9982 37.4658 30.1817 37.3933 30.3557C37.2111 30.7941 37.9109 31.3822 38.6147 31.3822C40.0592 31.3822 41.0287 29.1788 39.6492 29.0315C39.2831 28.9923 38.9034 29.1369 38.6485 29.4128ZM120.132 34.2146C119.546 34.7556 119.535 35.1321 120.092 35.597C120.656 36.0683 120.974 36.052 121.548 35.5219C122.117 34.9972 122.147 34.5802 121.65 34.1211C121.152 33.6623 120.701 33.69 120.132 34.2146Z" fill="white"/>
</svg>
