<svg width="29" height="31" viewBox="0 0 29 31" fill="none" xmlns="http://www.w3.org/2000/svg">
<g opacity="0.5">
<path fill-rule="evenodd" clip-rule="evenodd" d="M24.1168 5.36558C21.5732 2.73126 18.1906 1.27987 14.5869 1.27832C7.16109 1.27832 1.11758 7.53006 1.11459 15.214C1.1136 17.6703 1.73388 20.068 2.91288 22.1815L1.00159 29.4033L8.14345 27.4653C10.1113 28.5757 12.3268 29.1609 14.5814 29.1616H14.587C22.012 29.1616 28.0562 22.9094 28.059 15.2251C28.0605 11.5011 26.6605 7.99972 24.1168 5.36558ZM14.5869 26.808H14.5822C12.573 26.8071 10.6025 26.2485 8.88304 25.1933L8.47433 24.9422L4.23624 26.0923L5.36745 21.8178L5.10112 21.3795C3.9802 19.5352 3.38829 17.4035 3.38929 15.2148C3.39161 8.82816 8.41493 3.63214 14.5914 3.63214C17.5822 3.63317 20.3938 4.83961 22.5078 7.02915C24.6219 9.21869 25.7855 12.129 25.7845 15.2243C25.7818 21.6114 20.7588 26.808 14.5869 26.808ZM20.729 18.1324C20.3924 17.958 18.7373 17.1158 18.4287 16.9994C18.1204 16.8832 17.8957 16.8253 17.6715 17.1738C17.447 17.5223 16.802 18.3068 16.6055 18.539C16.4091 18.7715 16.2129 18.8007 15.8762 18.6262C15.5395 18.452 14.455 18.0841 13.1691 16.8978C12.1685 15.9744 11.4929 14.8341 11.2965 14.4856C11.1003 14.1368 11.2948 13.9665 11.4441 13.7749C11.8086 13.3068 12.1735 12.816 12.2856 12.5838C12.398 12.3513 12.3417 12.1479 12.2574 11.9737C12.1735 11.7994 11.5002 10.0854 11.2198 9.38795C10.9463 8.7092 10.669 8.80086 10.4623 8.79022C10.2661 8.78009 10.0416 8.77803 9.81711 8.77803C9.59276 8.77803 9.22803 8.86507 8.91938 9.21388C8.6109 9.56253 7.74138 10.4049 7.74138 12.1189C7.74138 13.8329 8.94759 15.4888 9.11585 15.7212C9.28412 15.9536 11.4896 19.471 14.8663 20.9792C15.6695 21.3383 16.2964 21.5524 16.7854 21.7129C17.5919 21.9779 18.3255 21.9405 18.9056 21.8509C19.5524 21.7508 20.897 21.0084 21.1778 20.1951C21.4583 19.3816 21.4583 18.6844 21.374 18.539C21.29 18.3938 21.0655 18.3068 20.729 18.1324Z" fill="#33302F"/>
</g>
</svg>
